<?xml version="1.0" standalone="no"?>
<!DOCTYPE svg PUBLIC "-//W3C//DTD SVG 20010904//EN"
 "http://www.w3.org/TR/2001/REC-SVG-20010904/DTD/svg10.dtd">
<svg version="1.0" xmlns="http://www.w3.org/2000/svg"
 width="140.000000pt" height="140.000000pt" viewBox="0 0 140.000000 140.000000"
 preserveAspectRatio="xMidYMid meet">
<metadata>
Created by potrace 1.11, written by Peter Selinger 2001-2013
</metadata>
<g transform="translate(0.000000,140.000000) scale(0.100000,-0.100000)"
fill="#000000" stroke="none">
<path d="M501 1108 c-52 -15 -78 -36 -101 -82 -23 -48 -25 -91 -8 -147 11 -39
42 -76 131 -158 59 -54 79 -91 75 -138 -7 -82 -71 -60 -83 28 -6 44 -9 48 -28
44 -12 -3 -40 -9 -62 -13 -39 -8 -40 -10 -38 -46 3 -49 39 -112 78 -136 72
-44 168 -33 226 26 29 30 34 42 37 99 6 86 -18 132 -111 221 -39 38 -80 80
-89 94 -24 34 -23 83 3 106 28 25 51 9 63 -44 11 -46 12 -46 91 -35 l47 6 -5
43 c-6 55 -37 97 -90 123 -46 23 -82 25 -136 9z"/>
<path d="M790 775 l0 -325 65 0 65 0 0 145 0 145 50 0 50 0 0 45 0 45 -50 0
-50 0 0 90 0 90 70 0 70 0 0 45 0 45 -135 0 -135 0 0 -325z"/>
<path d="M206 338 c-22 -31 -20 -45 9 -73 28 -29 43 -31 71 -10 18 14 17 14
-12 9 -32 -6 -64 14 -64 41 0 23 40 46 61 34 10 -5 20 -5 23 0 3 5 -1 12 -10
15 -31 12 -63 6 -78 -16z"/>
<path d="M341 323 c-10 -21 -22 -49 -26 -63 -7 -24 -7 -24 12 -7 25 22 69 22
82 0 5 -10 12 -15 15 -12 8 8 -43 119 -55 119 -5 0 -17 -17 -28 -37z m42 -13
c4 -15 0 -20 -14 -20 -21 0 -22 1 -13 24 8 22 21 20 27 -4z"/>
<path d="M450 300 c0 -60 0 -60 29 -60 17 0 33 5 36 10 4 6 -5 10 -19 10 -24
0 -26 3 -26 50 0 28 -4 50 -10 50 -6 0 -10 -27 -10 -60z"/>
<path d="M540 299 c0 -37 4 -58 10 -54 6 3 10 31 10 61 0 30 -4 54 -10 54 -6
0 -10 -27 -10 -61z"/>
<path d="M590 299 c0 -37 4 -58 10 -54 6 3 10 15 10 26 0 14 7 19 25 19 14 0
25 5 25 10 0 6 -11 10 -25 10 -18 0 -25 5 -25 19 0 15 8 21 33 24 28 3 26 4
-10 5 l-43 2 0 -61z"/>
<path d="M697 342 c-48 -53 19 -127 79 -87 28 18 33 65 8 89 -21 22 -67 20
-87 -2z m67 -5 c22 -16 18 -55 -6 -71 -40 -24 -80 44 -42 71 10 7 21 13 24 13
3 0 14 -6 24 -13z"/>
<path d="M830 300 c0 -39 4 -59 10 -55 6 4 8 11 5 16 -4 5 1 12 11 16 11 4 23
-1 36 -17 10 -12 21 -20 25 -17 3 4 0 13 -6 21 -10 11 -9 19 1 35 19 30 0 55
-46 59 l-36 3 0 -61z m54 44 c9 -3 16 -15 16 -25 0 -14 -7 -19 -30 -19 -22 0
-30 5 -30 18 0 30 13 38 44 26z"/>
<path d="M950 298 c0 -66 16 -71 22 -8 l3 35 29 -42 c16 -24 33 -43 37 -43 5
0 9 27 9 60 0 33 -4 60 -10 60 -5 0 -10 -17 -10 -37 l-1 -38 -30 38 c-17 20
-35 37 -40 37 -5 0 -9 -28 -9 -62z"/>
<path d="M1093 300 c0 -36 2 -50 4 -32 2 17 2 47 0 65 -2 17 -4 3 -4 -33z"/>
<path d="M1151 311 c-24 -57 -28 -86 -7 -58 17 22 72 23 80 1 4 -9 9 -14 12
-11 10 9 -38 117 -52 117 -6 0 -21 -22 -33 -49z m48 -13 c1 -5 -8 -8 -19 -8
-17 0 -18 3 -8 26 11 23 13 24 19 7 4 -10 8 -21 8 -25z"/>
</g>
</svg>
